<svg width="18" height="28" viewBox="0 0 18 28" fill="none" xmlns="http://www.w3.org/2000/svg">
<path d="M11.5038 11.9239L0 14L11.5038 16.0766L13.0855 14L11.5038 11.9239Z" fill="white"/>
<path d="M18 28L0.7146 19.0281L2.3625 18.1688C2.7477 17.9683 2.99025 17.5618 2.99025 17.1188V14.9692L6.7527 15.9629V17.9669C6.7527 18.4114 6.9966 18.8174 7.38225 19.0184L13.5238 22.206L13.086 18.78L16.5856 20.7069C16.9114 20.8861 17.1333 21.2155 17.1814 21.5916L18.0004 28.0009L18 28Z" fill="white"/>
<path d="M18 0L17.181 6.40937C17.1328 6.78588 16.911 7.11526 16.5852 7.29404L13.0855 9.22092L13.5234 5.79495L7.3818 8.98254C6.9957 9.18304 6.75225 9.58957 6.75225 10.034V12.038L2.9898 13.0317V10.8822C2.9898 10.4387 2.7468 10.0326 2.36205 9.83211L0.71415 8.97284L18 0Z" fill="white"/>
</svg>
