<?xml version="1.0" encoding="UTF-8"?><svg xmlns="http://www.w3.org/2000/svg" viewBox="0 0 400 606.1"><defs><style>.d{fill:#231f20;}</style></defs><g id="a"/><g id="b"><g id="c"><g><polygon class="d" points="255.64 258.11 0 303.05 255.64 348 290.79 303.05 255.64 258.11"/><g><path class="d" d="M400,606.1L15.88,411.89l36.62-18.6c8.56-4.34,13.95-13.14,13.95-22.73v-46.53l83.61,21.51v43.38c0,9.62,5.42,18.41,13.99,22.76l136.48,69-9.73-74.16,77.77,41.71c7.24,3.88,12.17,11.01,13.24,19.15l18.2,138.74Z"/><path class="d" d="M400,0l-18.2,138.74c-1.07,8.15-6,15.28-13.24,19.15l-77.77,41.71,9.73-74.16-136.48,69c-8.58,4.34-13.99,13.14-13.99,22.76v43.38l-83.61,21.51v-46.53c0-9.6-5.4-18.39-13.95-22.73l-36.62-18.6L400,0Z"/></g></g></g></g></svg>