<svg xmlns="http://www.w3.org/2000/svg" xmlns:xlink="http://www.w3.org/1999/xlink" width="100%" height="100%" viewBox="0 0 7620 1783" version="1.1" xml:space="preserve" style="fill-rule:evenodd;clip-rule:evenodd;stroke-linejoin:round;stroke-miterlimit:2;"> <g transform="matrix(1,0,0,1,-30,-1171.77)"> <g transform="matrix(2.81455,0,0,2.815,-686.285,1822)"> <text x="682.024px" y="366.387px" style="font-family:'Montserrat-Bold', 'Montserrat';font-weight:700;font-size:398.922px;fill:rgb(233,28,36);">NL<tspan x="1216.57px 1483.45px " y="366.387px 366.387px ">YB</tspan>URNS</text> </g> <g transform="matrix(0.2629,0,0,0.2629,24.2044,935.158)"> <g transform="matrix(17.8165,0,0,17.8165,-2142.98,-33.8863)"> <path d="M250.161,54.781C237.474,129.484 181.854,166.688 145.385,223.958C122.307,260.198 115.333,303.042 127.24,337.422C125.536,310.38 132.938,281.005 148.615,254.771C187.495,189.703 251.026,149.089 250.161,54.781Z" style="fill:rgb(233,28,36);"></path> </g> <g transform="matrix(17.7964,0,0,17.7964,-59.1278,848.391)"> <path d="M144,2.9C144.39,3.87 144.78,4.84 145.16,5.82C153.28,26.23 159.1,46.88 159.51,69C160.39,93.91 153.93,118.35 142.27,140.27C128.04,166.16 113.22,192.97 102.56,220.55C96.34,236.76 91.17,253.58 90.18,271.01C89.7,281.34 91.19,292.57 96.29,301.71C101.44,311.49 110.95,318.74 120.95,323.05C127.68,325.98 134.75,326.44 141.99,326.21C156.33,325.49 170.51,318.83 179.98,307.99C186.53,300.51 190.28,290.95 190.55,281.01C190.78,271.16 188.19,261.19 183.42,252.58C176.81,241.11 165.99,231.19 159.66,219.34C155.08,211.24 152.82,202.06 154.38,192.78C156.52,180.2 163.9,169.91 171.96,160.39C167.77,169.79 165.54,179.75 167.13,190.05C168.43,199.38 173.12,207.67 179.7,214.29C189.36,223.87 198.98,232.07 206.18,243.83C211.96,252.82 214.9,263.33 214.89,274.01C214.8,277.8 214.23,281.57 214.06,285.36C219.9,276.59 220.94,265.7 219.36,255.49C217.18,241.69 210.79,229.38 203.15,217.86C199.05,211.64 194.21,206.76 190.86,200.12C183.51,186.2 181.81,169.58 186.5,154.52C191.32,138.91 201.32,126.8 213.46,116.23C207.61,126.39 204.77,138.31 204.93,150C204.55,168.04 211.18,186.45 220.06,201.96C223.28,207.93 227.45,213.26 230.87,219.11C239.7,234.2 245.07,251.52 246,269C246.03,277.22 246.41,284.94 245,293.04C240.75,321.75 225.38,348.73 201.26,365.26C185.85,375.99 167.66,381.91 148.99,383.34C140.59,384.51 132.41,383.51 124.04,382.77C107.25,380.75 90.63,374.25 77.39,363.64C63.91,353.17 54.06,339.06 47.71,323.3C36.84,296.41 36.92,265.03 45.49,237.53C49.94,223.24 57.01,209.61 64.9,196.93C77.49,176.23 92.69,156.39 106.21,136.21C117.67,118.94 128.2,100.71 135.08,81.09C140.93,65.01 144.08,48.07 144.93,31C145,21.44 145.33,12.33 144,2.9Z" style="fill:rgb(233,28,36);fill-rule:nonzero;"></path> </g> </g> </g> </svg>